solid OpenSCAD_Model
  facet normal 0 0 1
    outer loop
      vertex 71.5 50 9.5
      vertex -76.5 49 9.5
      vertex 71.5 49 9.5
    endloop
  endfacet
  facet normal 0 0 1
    outer loop
      vertex -76.5 49 9.5
      vertex -78.5 50 9.5
      vertex -76.5 -49 9.5
    endloop
  endfacet
  facet normal 0 0 1
    outer loop
      vertex -78.5 50 9.5
      vertex -76.5 49 9.5
      vertex 71.5 50 9.5
    endloop
  endfacet
  facet normal 0 0 1
    outer loop
      vertex -76.5 -49 9.5
      vertex -69 -50 9.5
      vertex -69 -49 9.5
    endloop
  endfacet
  facet normal 0 0 1
    outer loop
      vertex -76.5 -49 9.5
      vertex -78.5 -50 9.5
      vertex -69 -50 9.5
    endloop
  endfacet
  facet normal 0 0 1
    outer loop
      vertex -78.5 -50 9.5
      vertex -76.5 -49 9.5
      vertex -78.5 50 9.5
    endloop
  endfacet
  facet normal 0 0 1
    outer loop
      vertex 45 -49 9.5
      vertex 71.5 -50 9.5
      vertex 71.5 -49 9.5
    endloop
  endfacet
  facet normal 0 0 1
    outer loop
      vertex 71.5 -50 9.5
      vertex 45 -49 9.5
      vertex 45 -50 9.5
    endloop
  endfacet
  facet normal 0 0 -1
    outer loop
      vertex -73.20096 -36.25 -9.5
      vertex -69 -32 -9.5
      vertex -73.05111 -36.61177 -9.5
    endloop
  endfacet
  facet normal 0 0 -1
    outer loop
      vertex -69 -32 -9.5
      vertex -73.05111 42.61177 -9.5
      vertex -73 43 -9.5
    endloop
  endfacet
  facet normal 0 0 -1
    outer loop
      vertex -73.43934 -35.93934 -9.5
      vertex -69 -32 -9.5
      vertex -73.20096 -36.25 -9.5
    endloop
  endfacet
  facet normal 0 0 -1
    outer loop
      vertex -69 -32 -9.5
      vertex -73.20096 42.25 -9.5
      vertex -73.05111 42.61177 -9.5
    endloop
  endfacet
  facet normal 0 0 -1
    outer loop
      vertex -73.75 -35.700962 -9.5
      vertex -69 -32 -9.5
      vertex -73.43934 -35.93934 -9.5
    endloop
  endfacet
  facet normal 0 0 -1
    outer loop
      vertex -69 -32 -9.5
      vertex -73.43934 41.93934 -9.5
      vertex -73.20096 42.25 -9.5
    endloop
  endfacet
  facet normal 0 0 -1
    outer loop
      vertex -74.11177 -35.55111 -9.5
      vertex -69 -32 -9.5
      vertex -73.75 -35.700962 -9.5
    endloop
  endfacet
  facet normal 0 0 -1
    outer loop
      vertex -69 -32 -9.5
      vertex -73.75 41.700962 -9.5
      vertex -73.43934 41.93934 -9.5
    endloop
  endfacet
  facet normal 0 0 -1
    outer loop
      vertex -74.5 -35.5 -9.5
      vertex -69 -32 -9.5
      vertex -74.11177 -35.55111 -9.5
    endloop
  endfacet
  facet normal 0 0 -1
    outer loop
      vertex -69 -32 -9.5
      vertex -74.11177 41.55111 -9.5
      vertex -73.75 41.700962 -9.5
    endloop
  endfacet
  facet normal 0 0 -1
    outer loop
      vertex -74.88823 -35.55111 -9.5
      vertex -69 -32 -9.5
      vertex -74.5 -35.5 -9.5
    endloop
  endfacet
  facet normal 0 0 -1
    outer loop
      vertex -69 -32 -9.5
      vertex -74.5 41.5 -9.5
      vertex -74.11177 41.55111 -9.5
    endloop
  endfacet
  facet normal 0 0 -1
    outer loop
      vertex -75.25 -35.700962 -9.5
      vertex -69 -32 -9.5
      vertex -74.88823 -35.55111 -9.5
    endloop
  endfacet
  facet normal 0 0 -1
    outer loop
      vertex -69 -32 -9.5
      vertex -74.88823 41.55111 -9.5
      vertex -74.5 41.5 -9.5
    endloop
  endfacet
  facet normal 0 0 -1
    outer loop
      vertex -75.25 41.700962 -9.5
      vertex -69 -32 -9.5
      vertex -75.25 -35.700962 -9.5
    endloop
  endfacet
  facet normal 0 0 -1
    outer loop
      vertex -69 -32 -9.5
      vertex -75.25 41.700962 -9.5
      vertex -74.88823 41.55111 -9.5
    endloop
  endfacet
  facet normal 0 0 -1
    outer loop
      vertex -75.56066 -35.93934 -9.5
      vertex -75.25 41.700962 -9.5
      vertex -75.25 -35.700962 -9.5
    endloop
  endfacet
  facet normal 0 0 -1
    outer loop
      vertex -75.56066 -35.93934 -9.5
      vertex -75.56066 41.93934 -9.5
      vertex -75.25 41.700962 -9.5
    endloop
  endfacet
  facet normal 0 0 -1
    outer loop
      vertex -75.79904 -36.25 -9.5
      vertex -75.56066 41.93934 -9.5
      vertex -75.56066 -35.93934 -9.5
    endloop
  endfacet
  facet normal 0 0 -1
    outer loop
      vertex -75.79904 -36.25 -9.5
      vertex -75.79904 42.25 -9.5
      vertex -75.56066 41.93934 -9.5
    endloop
  endfacet
  facet normal 0 0 -1
    outer loop
      vertex -75.94889 -36.61177 -9.5
      vertex -75.79904 42.25 -9.5
      vertex -75.79904 -36.25 -9.5
    endloop
  endfacet
  facet normal 0 0 -1
    outer loop
      vertex -75.94889 -36.61177 -9.5
      vertex -75.94889 42.61177 -9.5
      vertex -75.79904 42.25 -9.5
    endloop
  endfacet
  facet normal 0 0 -1
    outer loop
      vertex -78.5 -50 -9.5
      vertex -75.94889 -36.61177 -9.5
      vertex -76 -37 -9.5
    endloop
  endfacet
  facet normal 0 0 -1
    outer loop
      vertex -75.94889 -36.61177 -9.5
      vertex -78.5 50 -9.5
      vertex -75.94889 42.61177 -9.5
    endloop
  endfacet
  facet normal 0 0 -1
    outer loop
      vertex -73.05111 -37.38823 -9.5
      vertex -69 -32 -9.5
      vertex -69 -50 -9.5
    endloop
  endfacet
  facet normal 0 0 -1
    outer loop
      vertex -69 -32 -9.5
      vertex -73.05111 -37.38823 -9.5
      vertex -73 -37 -9.5
    endloop
  endfacet
  facet normal 0 0 -1
    outer loop
      vertex -69 -50 -9.5
      vertex -73.20096 -37.75 -9.5
      vertex -73.05111 -37.38823 -9.5
    endloop
  endfacet
  facet normal 0 0 -1
    outer loop
      vertex -69 -50 -9.5
      vertex -73.43934 -38.06066 -9.5
      vertex -73.20096 -37.75 -9.5
    endloop
  endfacet
  facet normal 0 0 -1
    outer loop
      vertex -69 -50 -9.5
      vertex -73.75 -38.299038 -9.5
      vertex -73.43934 -38.06066 -9.5
    endloop
  endfacet
  facet normal 0 0 -1
    outer loop
      vertex -69 -50 -9.5
      vertex -74.11177 -38.448887 -9.5
      vertex -73.75 -38.299038 -9.5
    endloop
  endfacet
  facet normal 0 0 -1
    outer loop
      vertex -69 -50 -9.5
      vertex -74.5 -38.5 -9.5
      vertex -74.11177 -38.448887 -9.5
    endloop
  endfacet
  facet normal 0 0 -1
    outer loop
      vertex -78.5 -50 -9.5
      vertex -74.5 -38.5 -9.5
      vertex -69 -50 -9.5
    endloop
  endfacet
  facet normal 0 0 -1
    outer loop
      vertex -74.5 -38.5 -9.5
      vertex -78.5 -50 -9.5
      vertex -74.88823 -38.448887 -9.5
    endloop
  endfacet
  facet normal 0 0 -1
    outer loop
      vertex -74.88823 -38.448887 -9.5
      vertex -78.5 -50 -9.5
      vertex -75.25 -38.299038 -9.5
    endloop
  endfacet
  facet normal 0 0 -1
    outer loop
      vertex -75.25 -38.299038 -9.5
      vertex -78.5 -50 -9.5
      vertex -75.56066 -38.06066 -9.5
    endloop
  endfacet
  facet normal 0 0 -1
    outer loop
      vertex -75.94889 -36.61177 -9.5
      vertex -78.5 -50 -9.5
      vertex -78.5 50 -9.5
    endloop
  endfacet
  facet normal 0 0 -1
    outer loop
      vertex -75.94889 -37.38823 -9.5
      vertex -78.5 -50 -9.5
      vertex -76 -37 -9.5
    endloop
  endfacet
  facet normal 0 0 -1
    outer loop
      vertex -75.79904 -37.75 -9.5
      vertex -78.5 -50 -9.5
      vertex -75.94889 -37.38823 -9.5
    endloop
  endfacet
  facet normal 0 0 -1
    outer loop
      vertex -75.56066 -38.06066 -9.5
      vertex -78.5 -50 -9.5
      vertex -75.79904 -37.75 -9.5
    endloop
  endfacet
  facet normal 0 0 -1
    outer loop
      vertex 76.94889 42.61177 -9.5
      vertex 79.5 50 -9.5
      vertex 76.94889 -36.61177 -9.5
    endloop
  endfacet
  facet normal 0 0 -1
    outer loop
      vertex 79.5 50 -9.5
      vertex 76.94889 42.61177 -9.5
      vertex 77 43 -9.5
    endloop
  endfacet
  facet normal 0 0 -1
    outer loop
      vertex 76.79904 -36.25 -9.5
      vertex 76.94889 42.61177 -9.5
      vertex 76.94889 -36.61177 -9.5
    endloop
  endfacet
  facet normal 0 0 -1
    outer loop
      vertex 76.79904 -36.25 -9.5
      vertex 76.79904 42.25 -9.5
      vertex 76.94889 42.61177 -9.5
    endloop
  endfacet
  facet normal 0 0 -1
    outer loop
      vertex 76.56066 -35.93934 -9.5
      vertex 76.79904 42.25 -9.5
      vertex 76.79904 -36.25 -9.5
    endloop
  endfacet
  facet normal 0 0 -1
    outer loop
      vertex 76.56066 -35.93934 -9.5
      vertex 76.56066 41.93934 -9.5
      vertex 76.79904 42.25 -9.5
    endloop
  endfacet
  facet normal 0 0 -1
    outer loop
      vertex 65 -20 -9.5
      vertex 76.56066 -35.93934 -9.5
      vertex 76.25 -35.700962 -9.5
    endloop
  endfacet
  facet normal 0 0 -1
    outer loop
      vertex 76.56066 -35.93934 -9.5
      vertex 65 -20 -9.5
      vertex 76.56066 41.93934 -9.5
    endloop
  endfacet
  facet normal 0 0 -1
    outer loop
      vertex 65 -20 -9.5
      vertex 76.25 -35.700962 -9.5
      vertex 75.88823 -35.55111 -9.5
    endloop
  endfacet
  facet normal 0 0 -1
    outer loop
      vertex 76.56066 41.93934 -9.5
      vertex 65 -20 -9.5
      vertex 76.25 41.700962 -9.5
    endloop
  endfacet
  facet normal 0 0 -1
    outer loop
      vertex 65 -20 -9.5
      vertex 75.88823 -35.55111 -9.5
      vertex 75.5 -35.5 -9.5
    endloop
  endfacet
  facet normal 0 0 -1
    outer loop
      vertex 76.25 41.700962 -9.5
      vertex 65 -20 -9.5
      vertex 75.88823 41.55111 -9.5
    endloop
  endfacet
  facet normal 0 0 -1
    outer loop
      vertex 65 -20 -9.5
      vertex 75.5 -35.5 -9.5
      vertex 75.11177 -35.55111 -9.5
    endloop
  endfacet
  facet normal 0 0 -1
    outer loop
      vertex 75.88823 41.55111 -9.5
      vertex 65 -20 -9.5
      vertex 75.5 41.5 -9.5
    endloop
  endfacet
  facet normal 0 0 -1
    outer loop
      vertex 65 -20 -9.5
      vertex 75.11177 -35.55111 -9.5
      vertex 74.75 -35.700962 -9.5
    endloop
  endfacet
  facet normal 0 0 -1
    outer loop
      vertex 75.5 41.5 -9.5
      vertex 65 -20 -9.5
      vertex 75.11177 41.55111 -9.5
    endloop
  endfacet
  facet normal 0 0 -1
    outer loop
      vertex 65 -20 -9.5
      vertex 74.75 -35.700962 -9.5
      vertex 74.43934 -35.93934 -9.5
    endloop
  endfacet
  facet normal 0 0 -1
    outer loop
      vertex 75.11177 41.55111 -9.5
      vertex 65 -20 -9.5
      vertex 74.75 41.700962 -9.5
    endloop
  endfacet
  facet normal 0 0 -1
    outer loop
      vertex 65 -20 -9.5
      vertex 74.43934 -35.93934 -9.5
      vertex 74.20096 -36.25 -9.5
    endloop
  endfacet
  facet normal 0 0 -1
    outer loop
      vertex 65 46 -9.5
      vertex 74.75 41.700962 -9.5
      vertex 65 -20 -9.5
    endloop
  endfacet
  facet normal 0 0 -1
    outer loop
      vertex 65 -20 -9.5
      vertex 74.20096 -36.25 -9.5
      vertex 74.05111 -36.61177 -9.5
    endloop
  endfacet
  facet normal 0 0 -1
    outer loop
      vertex 74.75 41.700962 -9.5
      vertex 65 46 -9.5
      vertex 74.43934 41.93934 -9.5
    endloop
  endfacet
  facet normal 0 0 -1
    outer loop
      vertex 65 -20 -9.5
      vertex 74.05111 -36.61177 -9.5
      vertex 74 -37 -9.5
    endloop
  endfacet
  facet normal 0 0 -1
    outer loop
      vertex 74.43934 41.93934 -9.5
      vertex 65 46 -9.5
      vertex 74.20096 42.25 -9.5
    endloop
  endfacet
  facet normal 0 0 -1
    outer loop
      vertex 76.94889 -36.61177 -9.5
      vertex 79.5 -50 -9.5
      vertex 77 -37 -9.5
    endloop
  endfacet
  facet normal 0 0 -1
    outer loop
      vertex 79.5 -50 -9.5
      vertex 76.94889 -37.38823 -9.5
      vertex 77 -37 -9.5
    endloop
  endfacet
  facet normal 0 0 -1
    outer loop
      vertex 79.5 -50 -9.5
      vertex 76.79904 -37.75 -9.5
      vertex 76.94889 -37.38823 -9.5
    endloop
  endfacet
  facet normal 0 0 -1
    outer loop
      vertex 79.5 -50 -9.5
      vertex 76.56066 -38.06066 -9.5
      vertex 76.79904 -37.75 -9.5
    endloop
  endfacet
  facet normal 0 0 -1
    outer loop
      vertex 79.5 -50 -9.5
      vertex 76.25 -38.299038 -9.5
      vertex 76.56066 -38.06066 -9.5
    endloop
  endfacet
  facet normal 0 0 -1
    outer loop
      vertex 79.5 -50 -9.5
      vertex 75.88823 -38.448887 -9.5
      vertex 76.25 -38.299038 -9.5
    endloop
  endfacet
  facet normal 0 0 -1
    outer loop
      vertex 79.5 -50 -9.5
      vertex 75.5 -38.5 -9.5
      vertex 75.88823 -38.448887 -9.5
    endloop
  endfacet
  facet normal 0 0 -1
    outer loop
      vertex 79.5 -50 -9.5
      vertex 75.11177 -38.448887 -9.5
      vertex 75.5 -38.5 -9.5
    endloop
  endfacet
  facet normal 0 0 -1
    outer loop
      vertex 79.5 -50 -9.5
      vertex 74.75 -38.299038 -9.5
      vertex 75.11177 -38.448887 -9.5
    endloop
  endfacet
  facet normal 0 0 -1
    outer loop
      vertex 79.5 -50 -9.5
      vertex 74.43934 -38.06066 -9.5
      vertex 74.75 -38.299038 -9.5
    endloop
  endfacet
  facet normal 0 0 -1
    outer loop
      vertex 45 -50 -9.5
      vertex 74.43934 -38.06066 -9.5
      vertex 79.5 -50 -9.5
    endloop
  endfacet
  facet normal 0 0 -1
    outer loop
      vertex 74.20096 42.25 -9.5
      vertex 65 46 -9.5
      vertex 74.05111 42.61177 -9.5
    endloop
  endfacet
  facet normal 0 0 -1
    outer loop
      vertex 45 -45 -9.5
      vertex 74 -37 -9.5
      vertex 74.05111 -37.38823 -9.5
    endloop
  endfacet
  facet normal 0 0 -1
    outer loop
      vertex 45 -45 -9.5
      vertex 74.05111 -37.38823 -9.5
      vertex 74.20096 -37.75 -9.5
    endloop
  endfacet
  facet normal 0 0 -1
    outer loop
      vertex 74.43934 -38.06066 -9.5
      vertex 45 -50 -9.5
      vertex 74.20096 -37.75 -9.5
    endloop
  endfacet
  facet normal 0 0 -1
    outer loop
      vertex 74.20096 -37.75 -9.5
      vertex 45 -50 -9.5
      vertex 45 -45 -9.5
    endloop
  endfacet
  facet normal 0 0 -1
    outer loop
      vertex 74 -37 -9.5
      vertex 45 -45 -9.5
      vertex 65 -20 -9.5
    endloop
  endfacet
  facet normal 0 0 -1
    outer loop
      vertex 40 -32 -9.5
      vertex 45 -45 -9.5
      vertex 40 -45 -9.5
    endloop
  endfacet
  facet normal 0 0 -1
    outer loop
      vertex 45 -45 -9.5
      vertex 40 -32 -9.5
      vertex 65 -20 -9.5
    endloop
  endfacet
  facet normal 0 0 -1
    outer loop
      vertex 40 -32 -9.5
      vertex -32 -20 -9.5
      vertex 65 -20 -9.5
    endloop
  endfacet
  facet normal 0 0 -1
    outer loop
      vertex -73 43 -9.5
      vertex -32 -20 -9.5
      vertex -69 -32 -9.5
    endloop
  endfacet
  facet normal 0 0 -1
    outer loop
      vertex -69 -32 -9.5
      vertex -32 -20 -9.5
      vertex 40 -32 -9.5
    endloop
  endfacet
  facet normal 0 0 -1
    outer loop
      vertex 79.5 -50 -9.5
      vertex 76.94889 -36.61177 -9.5
      vertex 79.5 50 -9.5
    endloop
  endfacet
  facet normal 0 0 -1
    outer loop
      vertex 76.94889 43.38823 -9.5
      vertex 79.5 50 -9.5
      vertex 77 43 -9.5
    endloop
  endfacet
  facet normal 0 0 -1
    outer loop
      vertex 76.79904 43.75 -9.5
      vertex 79.5 50 -9.5
      vertex 76.94889 43.38823 -9.5
    endloop
  endfacet
  facet normal 0 0 -1
    outer loop
      vertex 76.56066 44.06066 -9.5
      vertex 79.5 50 -9.5
      vertex 76.79904 43.75 -9.5
    endloop
  endfacet
  facet normal 0 0 -1
    outer loop
      vertex 76.25 44.299038 -9.5
      vertex 79.5 50 -9.5
      vertex 76.56066 44.06066 -9.5
    endloop
  endfacet
  facet normal 0 0 -1
    outer loop
      vertex 75.88823 44.448887 -9.5
      vertex 79.5 50 -9.5
      vertex 76.25 44.299038 -9.5
    endloop
  endfacet
  facet normal 0 0 -1
    outer loop
      vertex 75.5 44.5 -9.5
      vertex 79.5 50 -9.5
      vertex 75.88823 44.448887 -9.5
    endloop
  endfacet
  facet normal 0 0 -1
    outer loop
      vertex 75.11177 44.448887 -9.5
      vertex 79.5 50 -9.5
      vertex 75.5 44.5 -9.5
    endloop
  endfacet
  facet normal 0 0 -1
    outer loop
      vertex 74.75 44.299038 -9.5
      vertex 79.5 50 -9.5
      vertex 75.11177 44.448887 -9.5
    endloop
  endfacet
  facet normal 0 0 -1
    outer loop
      vertex 65 46 -9.5
      vertex 74.75 44.299038 -9.5
      vertex 74.43934 44.06066 -9.5
    endloop
  endfacet
  facet normal 0 0 -1
    outer loop
      vertex 74.05111 42.61177 -9.5
      vertex 65 46 -9.5
      vertex 74 43 -9.5
    endloop
  endfacet
  facet normal 0 0 -1
    outer loop
      vertex 74 43 -9.5
      vertex 65 46 -9.5
      vertex 74.05111 43.38823 -9.5
    endloop
  endfacet
  facet normal 0 0 -1
    outer loop
      vertex 65 46 -9.5
      vertex 74.20096 43.75 -9.5
      vertex 74.05111 43.38823 -9.5
    endloop
  endfacet
  facet normal 0 0 -1
    outer loop
      vertex 65 46 -9.5
      vertex 74.43934 44.06066 -9.5
      vertex 74.20096 43.75 -9.5
    endloop
  endfacet
  facet normal 0 0 -1
    outer loop
      vertex 74.75 44.299038 -9.5
      vertex 65 46 -9.5
      vertex 79.5 50 -9.5
    endloop
  endfacet
  facet normal 0 0 -1
    outer loop
      vertex -32 46 -9.5
      vertex 79.5 50 -9.5
      vertex 65 46 -9.5
    endloop
  endfacet
  facet normal 0 0 -1
    outer loop
      vertex -73.05111 -36.61177 -9.5
      vertex -69 -32 -9.5
      vertex -73 -37 -9.5
    endloop
  endfacet
  facet normal 0 0 -1
    outer loop
      vertex -32 -20 -9.5
      vertex -73 43 -9.5
      vertex -32 46 -9.5
    endloop
  endfacet
  facet normal 0 0 -1
    outer loop
      vertex -73.05111 43.38823 -9.5
      vertex -32 46 -9.5
      vertex -73 43 -9.5
    endloop
  endfacet
  facet normal 0 0 -1
    outer loop
      vertex -73.20096 43.75 -9.5
      vertex -32 46 -9.5
      vertex -73.05111 43.38823 -9.5
    endloop
  endfacet
  facet normal 0 0 -1
    outer loop
      vertex -73.43934 44.06066 -9.5
      vertex -32 46 -9.5
      vertex -73.20096 43.75 -9.5
    endloop
  endfacet
  facet normal 0 0 -1
    outer loop
      vertex -78.5 50 -9.5
      vertex -73.43934 44.06066 -9.5
      vertex -73.75 44.299038 -9.5
    endloop
  endfacet
  facet normal 0 0 -1
    outer loop
      vertex -78.5 50 -9.5
      vertex -73.75 44.299038 -9.5
      vertex -74.11177 44.448887 -9.5
    endloop
  endfacet
  facet normal 0 0 -1
    outer loop
      vertex -78.5 50 -9.5
      vertex -74.11177 44.448887 -9.5
      vertex -74.5 44.5 -9.5
    endloop
  endfacet
  facet normal 0 0 -1
    outer loop
      vertex -73.43934 44.06066 -9.5
      vertex -78.5 50 -9.5
      vertex -32 46 -9.5
    endloop
  endfacet
  facet normal 0 0 -1
    outer loop
      vertex -32 46 -9.5
      vertex -78.5 50 -9.5
      vertex 79.5 50 -9.5
    endloop
  endfacet
  facet normal 0 0 -1
    outer loop
      vertex -74.88823 44.448887 -9.5
      vertex -78.5 50 -9.5
      vertex -74.5 44.5 -9.5
    endloop
  endfacet
  facet normal 0 0 -1
    outer loop
      vertex -75.25 44.299038 -9.5
      vertex -78.5 50 -9.5
      vertex -74.88823 44.448887 -9.5
    endloop
  endfacet
  facet normal 0 0 -1
    outer loop
      vertex -75.56066 44.06066 -9.5
      vertex -78.5 50 -9.5
      vertex -75.25 44.299038 -9.5
    endloop
  endfacet
  facet normal 0 0 -1
    outer loop
      vertex -75.79904 43.75 -9.5
      vertex -78.5 50 -9.5
      vertex -75.56066 44.06066 -9.5
    endloop
  endfacet
  facet normal 0 0 -1
    outer loop
      vertex -75.94889 43.38823 -9.5
      vertex -78.5 50 -9.5
      vertex -75.79904 43.75 -9.5
    endloop
  endfacet
  facet normal 0 0 -1
    outer loop
      vertex -76 43 -9.5
      vertex -78.5 50 -9.5
      vertex -75.94889 43.38823 -9.5
    endloop
  endfacet
  facet normal 0 0 -1
    outer loop
      vertex -75.94889 42.61177 -9.5
      vertex -78.5 50 -9.5
      vertex -76 43 -9.5
    endloop
  endfacet
  facet normal -1 0 0
    outer loop
      vertex -78.5 -50 -9.5
      vertex -78.5 50 9.5
      vertex -78.5 50 -9.5
    endloop
  endfacet
  facet normal -1 0 0
    outer loop
      vertex -78.5 50 9.5
      vertex -78.5 -50 -9.5
      vertex -78.5 -50 9.5
    endloop
  endfacet
  facet normal 0 1 0
    outer loop
      vertex 79.5 50 -8
      vertex 79.5 50 -9.5
      vertex 71.5 50 -8
    endloop
  endfacet
  facet normal 0 1 0
    outer loop
      vertex 71.5 50 -8
      vertex -78.5 50 9.5
      vertex 71.5 50 9.5
    endloop
  endfacet
  facet normal 0 1 0
    outer loop
      vertex -78.5 50 -9.5
      vertex 71.5 50 -8
      vertex 79.5 50 -9.5
    endloop
  endfacet
  facet normal 0 1 0
    outer loop
      vertex 71.5 50 -8
      vertex -78.5 50 -9.5
      vertex -78.5 50 9.5
    endloop
  endfacet
  facet normal 0 -1 0
    outer loop
      vertex 45 -50 9.5
      vertex 71.5 -50 -8
      vertex 71.5 -50 9.5
    endloop
  endfacet
  facet normal 0 -1 0
    outer loop
      vertex 45 -50 -9.5
      vertex 71.5 -50 -8
      vertex 45 -50 9.5
    endloop
  endfacet
  facet normal 0 -1 0
    outer loop
      vertex 79.5 -50 -9.5
      vertex 71.5 -50 -8
      vertex 45 -50 -9.5
    endloop
  endfacet
  facet normal 0 -1 0
    outer loop
      vertex 71.5 -50 -8
      vertex 79.5 -50 -9.5
      vertex 79.5 -50 -8
    endloop
  endfacet
  facet normal 0 -1 0
    outer loop
      vertex -78.5 -50 -9.5
      vertex -69 -50 9.5
      vertex -78.5 -50 9.5
    endloop
  endfacet
  facet normal 0 -1 0
    outer loop
      vertex -69 -50 9.5
      vertex -78.5 -50 -9.5
      vertex -69 -50 -9.5
    endloop
  endfacet
  facet normal 0 0 1
    outer loop
      vertex -32 46 -7.5
      vertex -73.43934 41.93934 -7.5
      vertex -32 -20 -7.5
    endloop
  endfacet
  facet normal 0 0 1
    outer loop
      vertex -69 -32 -7.5
      vertex -73.05111 -36.61177 -7.5
      vertex -73 -37 -7.5
    endloop
  endfacet
  facet normal 0 0 1
    outer loop
      vertex -73.75 41.700962 -7.5
      vertex -32 -20 -7.5
      vertex -73.43934 41.93934 -7.5
    endloop
  endfacet
  facet normal 0 0 1
    outer loop
      vertex -69 -32 -7.5
      vertex -73.20096 -36.25 -7.5
      vertex -73.05111 -36.61177 -7.5
    endloop
  endfacet
  facet normal 0 0 1
    outer loop
      vertex -74.11177 41.55111 -7.5
      vertex -32 -20 -7.5
      vertex -73.75 41.700962 -7.5
    endloop
  endfacet
  facet normal 0 0 1
    outer loop
      vertex -69 -32 -7.5
      vertex -73.43934 -35.93934 -7.5
      vertex -73.20096 -36.25 -7.5
    endloop
  endfacet
  facet normal 0 0 1
    outer loop
      vertex -32 -20 -7.5
      vertex -74.11177 41.55111 -7.5
      vertex -69 -32 -7.5
    endloop
  endfacet
  facet normal 0 0 1
    outer loop
      vertex -69 -32 -7.5
      vertex -73.75 -35.700962 -7.5
      vertex -73.43934 -35.93934 -7.5
    endloop
  endfacet
  facet normal 0 0 1
    outer loop
      vertex -74.5 41.5 -7.5
      vertex -69 -32 -7.5
      vertex -74.11177 41.55111 -7.5
    endloop
  endfacet
  facet normal 0 0 1
    outer loop
      vertex -69 -32 -7.5
      vertex -74.11177 -35.55111 -7.5
      vertex -73.75 -35.700962 -7.5
    endloop
  endfacet
  facet normal 0 0 1
    outer loop
      vertex -74.88823 41.55111 -7.5
      vertex -69 -32 -7.5
      vertex -74.5 41.5 -7.5
    endloop
  endfacet
  facet normal 0 0 1
    outer loop
      vertex -69 -32 -7.5
      vertex -74.5 -35.5 -7.5
      vertex -74.11177 -35.55111 -7.5
    endloop
  endfacet
  facet normal 0 0 1
    outer loop
      vertex -75.25 41.700962 -7.5
      vertex -69 -32 -7.5
      vertex -74.88823 41.55111 -7.5
    endloop
  endfacet
  facet normal 0 0 1
    outer loop
      vertex -69 -32 -7.5
      vertex -74.88823 -35.55111 -7.5
      vertex -74.5 -35.5 -7.5
    endloop
  endfacet
  facet normal 0 0 1
    outer loop
      vertex -75.25 -35.700962 -7.5
      vertex -69 -32 -7.5
      vertex -75.25 41.700962 -7.5
    endloop
  endfacet
  facet normal 0 0 1
    outer loop
      vertex -69 -32 -7.5
      vertex -75.25 -35.700962 -7.5
      vertex -74.88823 -35.55111 -7.5
    endloop
  endfacet
  facet normal 0 0 1
    outer loop
      vertex -75.56066 41.93934 -7.5
      vertex -75.25 -35.700962 -7.5
      vertex -75.25 41.700962 -7.5
    endloop
  endfacet
  facet normal 0 0 1
    outer loop
      vertex -75.56066 41.93934 -7.5
      vertex -75.56066 -35.93934 -7.5
      vertex -75.25 -35.700962 -7.5
    endloop
  endfacet
  facet normal 0 0 1
    outer loop
      vertex -75.79904 42.25 -7.5
      vertex -75.56066 -35.93934 -7.5
      vertex -75.56066 41.93934 -7.5
    endloop
  endfacet
  facet normal 0 0 1
    outer loop
      vertex -75.79904 42.25 -7.5
      vertex -75.79904 -36.25 -7.5
      vertex -75.56066 -35.93934 -7.5
    endloop
  endfacet
  facet normal 0 0 1
    outer loop
      vertex -75.94889 42.61177 -7.5
      vertex -75.79904 -36.25 -7.5
      vertex -75.79904 42.25 -7.5
    endloop
  endfacet
  facet normal 0 0 1
    outer loop
      vertex -75.94889 42.61177 -7.5
      vertex -75.94889 -36.61177 -7.5
      vertex -75.79904 -36.25 -7.5
    endloop
  endfacet
  facet normal 0 0 1
    outer loop
      vertex -76 43 -7.5
      vertex -75.94889 -36.61177 -7.5
      vertex -75.94889 42.61177 -7.5
    endloop
  endfacet
  facet normal 0 0 1
    outer loop
      vertex -75.94889 -36.61177 -7.5
      vertex -76 43 -7.5
      vertex -76 -37 -7.5
    endloop
  endfacet
  facet normal 0 0 1
    outer loop
      vertex 65 -20 -7.5
      vertex 40 -32 -7.5
      vertex 45 -45 -7.5
    endloop
  endfacet
  facet normal 0 0 1
    outer loop
      vertex -32 -20 -7.5
      vertex 40 -32 -7.5
      vertex 65 -20 -7.5
    endloop
  endfacet
  facet normal 0 0 1
    outer loop
      vertex 40 -32 -7.5
      vertex -32 -20 -7.5
      vertex -69 -32 -7.5
    endloop
  endfacet
  facet normal 0 0 1
    outer loop
      vertex 65 -20 -7.5
      vertex 71.5 49 -7.5
      vertex 65 46 -7.5
    endloop
  endfacet
  facet normal 0 0 1
    outer loop
      vertex 71.5 49 -7.5
      vertex -32 46 -7.5
      vertex 65 46 -7.5
    endloop
  endfacet
  facet normal 0 0 1
    outer loop
      vertex -73.05111 42.61177 -7.5
      vertex -32 46 -7.5
      vertex -73 43 -7.5
    endloop
  endfacet
  facet normal 0 0 1
    outer loop
      vertex -73.43934 41.93934 -7.5
      vertex -32 46 -7.5
      vertex -73.20096 42.25 -7.5
    endloop
  endfacet
  facet normal 0 0 1
    outer loop
      vertex -73.20096 42.25 -7.5
      vertex -32 46 -7.5
      vertex -73.05111 42.61177 -7.5
    endloop
  endfacet
  facet normal 0 0 1
    outer loop
      vertex -32 46 -7.5
      vertex -73.05111 43.38823 -7.5
      vertex -73 43 -7.5
    endloop
  endfacet
  facet normal 0 0 1
    outer loop
      vertex -32 46 -7.5
      vertex -73.20096 43.75 -7.5
      vertex -73.05111 43.38823 -7.5
    endloop
  endfacet
  facet normal 0 0 1
    outer loop
      vertex -32 46 -7.5
      vertex -73.43934 44.06066 -7.5
      vertex -73.20096 43.75 -7.5
    endloop
  endfacet
  facet normal 0 0 1
    outer loop
      vertex -76.5 49 -7.5
      vertex -73.43934 44.06066 -7.5
      vertex -32 46 -7.5
    endloop
  endfacet
  facet normal 0 0 1
    outer loop
      vertex -73.43934 44.06066 -7.5
      vertex -76.5 49 -7.5
      vertex -73.75 44.299038 -7.5
    endloop
  endfacet
  facet normal 0 0 1
    outer loop
      vertex -73.75 44.299038 -7.5
      vertex -76.5 49 -7.5
      vertex -74.11177 44.448887 -7.5
    endloop
  endfacet
  facet normal 0 0 1
    outer loop
      vertex -76 43 -7.5
      vertex -76.5 49 -7.5
      vertex -76 -37 -7.5
    endloop
  endfacet
  facet normal 0 0 1
    outer loop
      vertex -75.94889 43.38823 -7.5
      vertex -76.5 49 -7.5
      vertex -76 43 -7.5
    endloop
  endfacet
  facet normal 0 0 1
    outer loop
      vertex -75.79904 43.75 -7.5
      vertex -76.5 49 -7.5
      vertex -75.94889 43.38823 -7.5
    endloop
  endfacet
  facet normal 0 0 1
    outer loop
      vertex -75.56066 44.06066 -7.5
      vertex -76.5 49 -7.5
      vertex -75.79904 43.75 -7.5
    endloop
  endfacet
  facet normal 0 0 1
    outer loop
      vertex -75.25 44.299038 -7.5
      vertex -76.5 49 -7.5
      vertex -75.56066 44.06066 -7.5
    endloop
  endfacet
  facet normal 0 0 1
    outer loop
      vertex -74.88823 44.448887 -7.5
      vertex -76.5 49 -7.5
      vertex -75.25 44.299038 -7.5
    endloop
  endfacet
  facet normal 0 0 1
    outer loop
      vertex -74.5 44.5 -7.5
      vertex -76.5 49 -7.5
      vertex -74.88823 44.448887 -7.5
    endloop
  endfacet
  facet normal 0 0 1
    outer loop
      vertex -74.11177 44.448887 -7.5
      vertex -76.5 49 -7.5
      vertex -74.5 44.5 -7.5
    endloop
  endfacet
  facet normal 0 0 1
    outer loop
      vertex -76.5 49 -7.5
      vertex -32 46 -7.5
      vertex 71.5 49 -7.5
    endloop
  endfacet
  facet normal 0 0 1
    outer loop
      vertex 71.5 49 -7.5
      vertex 65 -20 -7.5
      vertex 71.5 -49 -7.5
    endloop
  endfacet
  facet normal 0 0 1
    outer loop
      vertex 45 -45 -7.5
      vertex 71.5 -49 -7.5
      vertex 65 -20 -7.5
    endloop
  endfacet
  facet normal 0 0 1
    outer loop
      vertex 71.5 -49 -7.5
      vertex 45 -45 -7.5
      vertex 45 -49 -7.5
    endloop
  endfacet
  facet normal 0 0 1
    outer loop
      vertex 45 -45 -7.5
      vertex 40 -32 -7.5
      vertex 40 -45 -7.5
    endloop
  endfacet
  facet normal 0 0 1
    outer loop
      vertex -73.05111 -37.38823 -7.5
      vertex -69 -32 -7.5
      vertex -73 -37 -7.5
    endloop
  endfacet
  facet normal 0 0 1
    outer loop
      vertex -69 -32 -7.5
      vertex -73.05111 -37.38823 -7.5
      vertex -69 -49 -7.5
    endloop
  endfacet
  facet normal 0 0 1
    outer loop
      vertex -73.20096 -37.75 -7.5
      vertex -69 -49 -7.5
      vertex -73.05111 -37.38823 -7.5
    endloop
  endfacet
  facet normal 0 0 1
    outer loop
      vertex -73.43934 -38.06066 -7.5
      vertex -69 -49 -7.5
      vertex -73.20096 -37.75 -7.5
    endloop
  endfacet
  facet normal 0 0 1
    outer loop
      vertex -73.75 -38.299038 -7.5
      vertex -69 -49 -7.5
      vertex -73.43934 -38.06066 -7.5
    endloop
  endfacet
  facet normal 0 0 1
    outer loop
      vertex -74.11177 -38.448887 -7.5
      vertex -69 -49 -7.5
      vertex -73.75 -38.299038 -7.5
    endloop
  endfacet
  facet normal 0 0 1
    outer loop
      vertex -76.5 -49 -7.5
      vertex -74.11177 -38.448887 -7.5
      vertex -74.5 -38.5 -7.5
    endloop
  endfacet
  facet normal 0 0 1
    outer loop
      vertex -76.5 -49 -7.5
      vertex -74.5 -38.5 -7.5
      vertex -74.88823 -38.448887 -7.5
    endloop
  endfacet
  facet normal 0 0 1
    outer loop
      vertex -76.5 -49 -7.5
      vertex -74.88823 -38.448887 -7.5
      vertex -75.25 -38.299038 -7.5
    endloop
  endfacet
  facet normal 0 0 1
    outer loop
      vertex -76.5 -49 -7.5
      vertex -75.25 -38.299038 -7.5
      vertex -75.56066 -38.06066 -7.5
    endloop
  endfacet
  facet normal 0 0 1
    outer loop
      vertex -76.5 -49 -7.5
      vertex -75.56066 -38.06066 -7.5
      vertex -75.79904 -37.75 -7.5
    endloop
  endfacet
  facet normal 0 0 1
    outer loop
      vertex -74.11177 -38.448887 -7.5
      vertex -76.5 -49 -7.5
      vertex -69 -49 -7.5
    endloop
  endfacet
  facet normal 0 0 1
    outer loop
      vertex -75.94889 -37.38823 -7.5
      vertex -76.5 -49 -7.5
      vertex -75.79904 -37.75 -7.5
    endloop
  endfacet
  facet normal 0 0 1
    outer loop
      vertex -76 -37 -7.5
      vertex -76.5 -49 -7.5
      vertex -75.94889 -37.38823 -7.5
    endloop
  endfacet
  facet normal 0 0 1
    outer loop
      vertex -76.5 -49 -7.5
      vertex -76 -37 -7.5
      vertex -76.5 49 -7.5
    endloop
  endfacet
  facet normal 1 0 0
    outer loop
      vertex -76.5 -49 9.5
      vertex -76.5 49 -7.5
      vertex -76.5 49 9.5
    endloop
  endfacet
  facet normal 1 0 0
    outer loop
      vertex -76.5 49 -7.5
      vertex -76.5 -49 9.5
      vertex -76.5 -49 -7.5
    endloop
  endfacet
  facet normal 0 -1 0
    outer loop
      vertex -76.5 49 -7.5
      vertex 71.5 49 9.5
      vertex -76.5 49 9.5
    endloop
  endfacet
  facet normal 0 -1 0
    outer loop
      vertex 71.5 49 9.5
      vertex -76.5 49 -7.5
      vertex 71.5 49 -7.5
    endloop
  endfacet
  facet normal 0 1 0
    outer loop
      vertex -69 -49 -7.5
      vertex -76.5 -49 9.5
      vertex -69 -49 9.5
    endloop
  endfacet
  facet normal 0 1 0
    outer loop
      vertex -76.5 -49 9.5
      vertex -69 -49 -7.5
      vertex -76.5 -49 -7.5
    endloop
  endfacet
  facet normal 0 1 0
    outer loop
      vertex 71.5 -49 -7.5
      vertex 45 -49 9.5
      vertex 71.5 -49 9.5
    endloop
  endfacet
  facet normal 0 1 0
    outer loop
      vertex 45 -49 9.5
      vertex 71.5 -49 -7.5
      vertex 45 -49 -7.5
    endloop
  endfacet
  facet normal 1 0 0
    outer loop
      vertex 71.5 -49 9.5
      vertex 71.5 -50 9.5
      vertex 71.5 -49 -7.5
    endloop
  endfacet
  facet normal 1 0 0
    outer loop
      vertex 71.5 49 -7.5
      vertex 71.5 50 9.5
      vertex 71.5 49 9.5
    endloop
  endfacet
  facet normal 1 0 0
    outer loop
      vertex 71.5 50 9.5
      vertex 71.5 49 -7.5
      vertex 71.5 50 -8
    endloop
  endfacet
  facet normal 1 0 0
    outer loop
      vertex 71.5 -49 -7.5
      vertex 71.5 50 -8
      vertex 71.5 49 -7.5
    endloop
  endfacet
  facet normal 1 0 0
    outer loop
      vertex 71.5 -49 -7.5
      vertex 71.5 -50 -8
      vertex 71.5 50 -8
    endloop
  endfacet
  facet normal 1 0 0
    outer loop
      vertex 71.5 -50 -8
      vertex 71.5 -49 -7.5
      vertex 71.5 -50 9.5
    endloop
  endfacet
  facet normal -0.6087579 0.79335606 0
    outer loop
      vertex -73.43934 41.93934 -9.5
      vertex -73.75 41.700962 -7.5
      vertex -73.43934 41.93934 -7.5
    endloop
  endfacet
  facet normal -0.6087579 0.79335606 0
    outer loop
      vertex -73.75 41.700962 -7.5
      vertex -73.43934 41.93934 -9.5
      vertex -73.75 41.700962 -9.5
    endloop
  endfacet
  facet normal -0.99144554 -0.13052104 0
    outer loop
      vertex -73 43 -9.5
      vertex -73.05111 43.38823 -7.5
      vertex -73.05111 43.38823 -9.5
    endloop
  endfacet
  facet normal -0.99144554 -0.13052104 0
    outer loop
      vertex -73.05111 43.38823 -7.5
      vertex -73 43 -9.5
      vertex -73 43 -7.5
    endloop
  endfacet
  facet normal -0.13053061 -0.9914443 0
    outer loop
      vertex -74.5 44.5 -9.5
      vertex -74.11177 44.448887 -7.5
      vertex -74.5 44.5 -7.5
    endloop
  endfacet
  facet normal -0.13053061 -0.9914443 0
    outer loop
      vertex -74.11177 44.448887 -7.5
      vertex -74.5 44.5 -9.5
      vertex -74.11177 44.448887 -9.5
    endloop
  endfacet
  facet normal 0.38268045 -0.92388076 0
    outer loop
      vertex -75.25 44.299038 -9.5
      vertex -74.88823 44.448887 -7.5
      vertex -75.25 44.299038 -7.5
    endloop
  endfacet
  facet normal 0.38268045 -0.92388076 0
    outer loop
      vertex -74.88823 44.448887 -7.5
      vertex -75.25 44.299038 -9.5
      vertex -74.88823 44.448887 -9.5
    endloop
  endfacet
  facet normal -0.38268045 -0.92388076 0
    outer loop
      vertex -74.11177 44.448887 -9.5
      vertex -73.75 44.299038 -7.5
      vertex -74.11177 44.448887 -7.5
    endloop
  endfacet
  facet normal -0.38268045 -0.92388076 0
    outer loop
      vertex -73.75 44.299038 -7.5
      vertex -74.11177 44.448887 -9.5
      vertex -73.75 44.299038 -9.5
    endloop
  endfacet
  facet normal 0.13053061 -0.9914443 0
    outer loop
      vertex -74.88823 44.448887 -9.5
      vertex -74.5 44.5 -7.5
      vertex -74.88823 44.448887 -7.5
    endloop
  endfacet
  facet normal 0.13053061 -0.9914443 0
    outer loop
      vertex -74.5 44.5 -7.5
      vertex -74.88823 44.448887 -9.5
      vertex -74.5 44.5 -9.5
    endloop
  endfacet
  facet normal -0.6087579 -0.79335606 0
    outer loop
      vertex -73.75 44.299038 -9.5
      vertex -73.43934 44.06066 -7.5
      vertex -73.75 44.299038 -7.5
    endloop
  endfacet
  facet normal -0.6087579 -0.79335606 0
    outer loop
      vertex -73.43934 44.06066 -7.5
      vertex -73.75 44.299038 -9.5
      vertex -73.43934 44.06066 -9.5
    endloop
  endfacet
  facet normal -0.79335135 -0.60876405 0
    outer loop
      vertex -73.20096 43.75 -9.5
      vertex -73.43934 44.06066 -7.5
      vertex -73.43934 44.06066 -9.5
    endloop
  endfacet
  facet normal -0.79335135 -0.60876405 0
    outer loop
      vertex -73.43934 44.06066 -7.5
      vertex -73.20096 43.75 -9.5
      vertex -73.20096 43.75 -7.5
    endloop
  endfacet
  facet normal -0.92388076 -0.38268045 0
    outer loop
      vertex -73.05111 43.38823 -9.5
      vertex -73.20096 43.75 -7.5
      vertex -73.20096 43.75 -9.5
    endloop
  endfacet
  facet normal -0.92388076 -0.38268045 0
    outer loop
      vertex -73.20096 43.75 -7.5
      vertex -73.05111 43.38823 -9.5
      vertex -73.05111 43.38823 -7.5
    endloop
  endfacet
  facet normal 0.6087579 0.79335606 0
    outer loop
      vertex -75.25 41.700962 -9.5
      vertex -75.56066 41.93934 -7.5
      vertex -75.25 41.700962 -7.5
    endloop
  endfacet
  facet normal 0.6087579 0.79335606 0
    outer loop
      vertex -75.56066 41.93934 -7.5
      vertex -75.25 41.700962 -9.5
      vertex -75.56066 41.93934 -9.5
    endloop
  endfacet
  facet normal 0.92388076 -0.38268045 0
    outer loop
      vertex -75.94889 43.38823 -7.5
      vertex -75.79904 43.75 -9.5
      vertex -75.79904 43.75 -7.5
    endloop
  endfacet
  facet normal 0.92388076 -0.38268045 0
    outer loop
      vertex -75.79904 43.75 -9.5
      vertex -75.94889 43.38823 -7.5
      vertex -75.94889 43.38823 -9.5
    endloop
  endfacet
  facet normal 0.92388076 0.38268045 0
    outer loop
      vertex -75.79904 42.25 -7.5
      vertex -75.94889 42.61177 -9.5
      vertex -75.94889 42.61177 -7.5
    endloop
  endfacet
  facet normal 0.92388076 0.38268045 0
    outer loop
      vertex -75.94889 42.61177 -9.5
      vertex -75.79904 42.25 -7.5
      vertex -75.79904 42.25 -9.5
    endloop
  endfacet
  facet normal -0.99144554 0.13052104 0
    outer loop
      vertex -73.05111 42.61177 -9.5
      vertex -73 43 -7.5
      vertex -73 43 -9.5
    endloop
  endfacet
  facet normal -0.99144554 0.13052104 0
    outer loop
      vertex -73 43 -7.5
      vertex -73.05111 42.61177 -9.5
      vertex -73.05111 42.61177 -7.5
    endloop
  endfacet
  facet normal 0.79335135 0.60876405 0
    outer loop
      vertex -75.56066 41.93934 -7.5
      vertex -75.79904 42.25 -9.5
      vertex -75.79904 42.25 -7.5
    endloop
  endfacet
  facet normal 0.79335135 0.60876405 0
    outer loop
      vertex -75.79904 42.25 -9.5
      vertex -75.56066 41.93934 -7.5
      vertex -75.56066 41.93934 -9.5
    endloop
  endfacet
  facet normal 0.79335135 -0.60876405 0
    outer loop
      vertex -75.79904 43.75 -7.5
      vertex -75.56066 44.06066 -9.5
      vertex -75.56066 44.06066 -7.5
    endloop
  endfacet
  facet normal 0.79335135 -0.60876405 0
    outer loop
      vertex -75.56066 44.06066 -9.5
      vertex -75.79904 43.75 -7.5
      vertex -75.79904 43.75 -9.5
    endloop
  endfacet
  facet normal 0.13052104 0.99144554 0
    outer loop
      vertex -74.5 41.5 -9.5
      vertex -74.88823 41.55111 -7.5
      vertex -74.5 41.5 -7.5
    endloop
  endfacet
  facet normal 0.13052104 0.99144554 0
    outer loop
      vertex -74.88823 41.55111 -7.5
      vertex -74.5 41.5 -9.5
      vertex -74.88823 41.55111 -9.5
    endloop
  endfacet
  facet normal -0.79335135 0.60876405 0
    outer loop
      vertex -73.43934 41.93934 -9.5
      vertex -73.20096 42.25 -7.5
      vertex -73.20096 42.25 -9.5
    endloop
  endfacet
  facet normal -0.79335135 0.60876405 0
    outer loop
      vertex -73.20096 42.25 -7.5
      vertex -73.43934 41.93934 -9.5
      vertex -73.43934 41.93934 -7.5
    endloop
  endfacet
  facet normal 0.6087579 -0.79335606 0
    outer loop
      vertex -75.56066 44.06066 -9.5
      vertex -75.25 44.299038 -7.5
      vertex -75.56066 44.06066 -7.5
    endloop
  endfacet
  facet normal 0.6087579 -0.79335606 0
    outer loop
      vertex -75.25 44.299038 -7.5
      vertex -75.56066 44.06066 -9.5
      vertex -75.25 44.299038 -9.5
    endloop
  endfacet
  facet normal -0.92388076 0.38268045 0
    outer loop
      vertex -73.20096 42.25 -9.5
      vertex -73.05111 42.61177 -7.5
      vertex -73.05111 42.61177 -9.5
    endloop
  endfacet
  facet normal -0.92388076 0.38268045 0
    outer loop
      vertex -73.05111 42.61177 -7.5
      vertex -73.20096 42.25 -9.5
      vertex -73.20096 42.25 -7.5
    endloop
  endfacet
  facet normal -0.13052104 0.99144554 0
    outer loop
      vertex -74.11177 41.55111 -9.5
      vertex -74.5 41.5 -7.5
      vertex -74.11177 41.55111 -7.5
    endloop
  endfacet
  facet normal -0.13052104 0.99144554 0
    outer loop
      vertex -74.5 41.5 -7.5
      vertex -74.11177 41.55111 -9.5
      vertex -74.5 41.5 -9.5
    endloop
  endfacet
  facet normal 0.99144554 0.13052104 0
    outer loop
      vertex -75.94889 42.61177 -7.5
      vertex -76 43 -9.5
      vertex -76 43 -7.5
    endloop
  endfacet
  facet normal 0.99144554 0.13052104 0
    outer loop
      vertex -76 43 -9.5
      vertex -75.94889 42.61177 -7.5
      vertex -75.94889 42.61177 -9.5
    endloop
  endfacet
  facet normal -0.3826888 0.9238773 0
    outer loop
      vertex -73.75 41.700962 -9.5
      vertex -74.11177 41.55111 -7.5
      vertex -73.75 41.700962 -7.5
    endloop
  endfacet
  facet normal -0.3826888 0.9238773 0
    outer loop
      vertex -74.11177 41.55111 -7.5
      vertex -73.75 41.700962 -9.5
      vertex -74.11177 41.55111 -9.5
    endloop
  endfacet
  facet normal 0.99144554 -0.13052104 0
    outer loop
      vertex -76 43 -7.5
      vertex -75.94889 43.38823 -9.5
      vertex -75.94889 43.38823 -7.5
    endloop
  endfacet
  facet normal 0.99144554 -0.13052104 0
    outer loop
      vertex -75.94889 43.38823 -9.5
      vertex -76 43 -7.5
      vertex -76 43 -9.5
    endloop
  endfacet
  facet normal 0.3826888 0.9238773 0
    outer loop
      vertex -74.88823 41.55111 -9.5
      vertex -75.25 41.700962 -7.5
      vertex -74.88823 41.55111 -7.5
    endloop
  endfacet
  facet normal 0.3826888 0.9238773 0
    outer loop
      vertex -75.25 41.700962 -7.5
      vertex -74.88823 41.55111 -9.5
      vertex -75.25 41.700962 -9.5
    endloop
  endfacet
  facet normal -0.99144554 -0.13052104 0
    outer loop
      vertex -73 -37 -9.5
      vertex -73.05111 -36.61177 -7.5
      vertex -73.05111 -36.61177 -9.5
    endloop
  endfacet
  facet normal -0.99144554 -0.13052104 0
    outer loop
      vertex -73.05111 -36.61177 -7.5
      vertex -73 -37 -9.5
      vertex -73 -37 -7.5
    endloop
  endfacet
  facet normal -0.13052104 -0.99144554 0
    outer loop
      vertex -74.5 -35.5 -9.5
      vertex -74.11177 -35.55111 -7.5
      vertex -74.5 -35.5 -7.5
    endloop
  endfacet
  facet normal -0.13052104 -0.99144554 0
    outer loop
      vertex -74.11177 -35.55111 -7.5
      vertex -74.5 -35.5 -9.5
      vertex -74.11177 -35.55111 -9.5
    endloop
  endfacet
  facet normal -0.6087579 0.79335606 0
    outer loop
      vertex -73.43934 -38.06066 -9.5
      vertex -73.75 -38.299038 -7.5
      vertex -73.43934 -38.06066 -7.5
    endloop
  endfacet
  facet normal -0.6087579 0.79335606 0
    outer loop
      vertex -73.75 -38.299038 -7.5
      vertex -73.43934 -38.06066 -9.5
      vertex -73.75 -38.299038 -9.5
    endloop
  endfacet
  facet normal 0.92388076 0.38268045 0
    outer loop
      vertex -75.79904 -37.75 -7.5
      vertex -75.94889 -37.38823 -9.5
      vertex -75.94889 -37.38823 -7.5
    endloop
  endfacet
  facet normal 0.92388076 0.38268045 0
    outer loop
      vertex -75.94889 -37.38823 -9.5
      vertex -75.79904 -37.75 -7.5
      vertex -75.79904 -37.75 -9.5
    endloop
  endfacet
  facet normal -0.79335135 0.60876405 0
    outer loop
      vertex -73.43934 -38.06066 -9.5
      vertex -73.20096 -37.75 -7.5
      vertex -73.20096 -37.75 -9.5
    endloop
  endfacet
  facet normal -0.79335135 0.60876405 0
    outer loop
      vertex -73.20096 -37.75 -7.5
      vertex -73.43934 -38.06066 -9.5
      vertex -73.43934 -38.06066 -7.5
    endloop
  endfacet
  facet normal -0.99144554 0.13052104 0
    outer loop
      vertex -73.05111 -37.38823 -9.5
      vertex -73 -37 -7.5
      vertex -73 -37 -9.5
    endloop
  endfacet
  facet normal -0.99144554 0.13052104 0
    outer loop
      vertex -73 -37 -7.5
      vertex -73.05111 -37.38823 -9.5
      vertex -73.05111 -37.38823 -7.5
    endloop
  endfacet
  facet normal -0.38268045 0.92388076 0
    outer loop
      vertex -73.75 -38.299038 -9.5
      vertex -74.11177 -38.448887 -7.5
      vertex -73.75 -38.299038 -7.5
    endloop
  endfacet
  facet normal -0.38268045 0.92388076 0
    outer loop
      vertex -74.11177 -38.448887 -7.5
      vertex -73.75 -38.299038 -9.5
      vertex -74.11177 -38.448887 -9.5
    endloop
  endfacet
  facet normal 0.13053061 0.9914443 0
    outer loop
      vertex -74.5 -38.5 -9.5
      vertex -74.88823 -38.448887 -7.5
      vertex -74.5 -38.5 -7.5
    endloop
  endfacet
  facet normal 0.13053061 0.9914443 0
    outer loop
      vertex -74.88823 -38.448887 -7.5
      vertex -74.5 -38.5 -9.5
      vertex -74.88823 -38.448887 -9.5
    endloop
  endfacet
  facet normal -0.6087579 -0.79335606 0
    outer loop
      vertex -73.75 -35.700962 -9.5
      vertex -73.43934 -35.93934 -7.5
      vertex -73.75 -35.700962 -7.5
    endloop
  endfacet
  facet normal -0.6087579 -0.79335606 0
    outer loop
      vertex -73.43934 -35.93934 -7.5
      vertex -73.75 -35.700962 -9.5
      vertex -73.43934 -35.93934 -9.5
    endloop
  endfacet
  facet normal 0.99144554 -0.13052104 0
    outer loop
      vertex -76 -37 -7.5
      vertex -75.94889 -36.61177 -9.5
      vertex -75.94889 -36.61177 -7.5
    endloop
  endfacet
  facet normal 0.99144554 -0.13052104 0
    outer loop
      vertex -75.94889 -36.61177 -9.5
      vertex -76 -37 -7.5
      vertex -76 -37 -9.5
    endloop
  endfacet
  facet normal 0.92388076 -0.38268045 0
    outer loop
      vertex -75.94889 -36.61177 -7.5
      vertex -75.79904 -36.25 -9.5
      vertex -75.79904 -36.25 -7.5
    endloop
  endfacet
  facet normal 0.92388076 -0.38268045 0
    outer loop
      vertex -75.79904 -36.25 -9.5
      vertex -75.94889 -36.61177 -7.5
      vertex -75.94889 -36.61177 -9.5
    endloop
  endfacet
  facet normal -0.92388076 -0.38268045 0
    outer loop
      vertex -73.05111 -36.61177 -9.5
      vertex -73.20096 -36.25 -7.5
      vertex -73.20096 -36.25 -9.5
    endloop
  endfacet
  facet normal -0.92388076 -0.38268045 0
    outer loop
      vertex -73.20096 -36.25 -7.5
      vertex -73.05111 -36.61177 -9.5
      vertex -73.05111 -36.61177 -7.5
    endloop
  endfacet
  facet normal 0.6087579 -0.79335606 0
    outer loop
      vertex -75.56066 -35.93934 -9.5
      vertex -75.25 -35.700962 -7.5
      vertex -75.56066 -35.93934 -7.5
    endloop
  endfacet
  facet normal 0.6087579 -0.79335606 0
    outer loop
      vertex -75.25 -35.700962 -7.5
      vertex -75.56066 -35.93934 -9.5
      vertex -75.25 -35.700962 -9.5
    endloop
  endfacet
  facet normal 0.3826888 -0.9238773 0
    outer loop
      vertex -75.25 -35.700962 -9.5
      vertex -74.88823 -35.55111 -7.5
      vertex -75.25 -35.700962 -7.5
    endloop
  endfacet
  facet normal 0.3826888 -0.9238773 0
    outer loop
      vertex -74.88823 -35.55111 -7.5
      vertex -75.25 -35.700962 -9.5
      vertex -74.88823 -35.55111 -9.5
    endloop
  endfacet
  facet normal 0.38268045 0.92388076 0
    outer loop
      vertex -74.88823 -38.448887 -9.5
      vertex -75.25 -38.299038 -7.5
      vertex -74.88823 -38.448887 -7.5
    endloop
  endfacet
  facet normal 0.38268045 0.92388076 0
    outer loop
      vertex -75.25 -38.299038 -7.5
      vertex -74.88823 -38.448887 -9.5
      vertex -75.25 -38.299038 -9.5
    endloop
  endfacet
  facet normal 0.99144554 0.13052104 0
    outer loop
      vertex -75.94889 -37.38823 -7.5
      vertex -76 -37 -9.5
      vertex -76 -37 -7.5
    endloop
  endfacet
  facet normal 0.99144554 0.13052104 0
    outer loop
      vertex -76 -37 -9.5
      vertex -75.94889 -37.38823 -7.5
      vertex -75.94889 -37.38823 -9.5
    endloop
  endfacet
  facet normal -0.13053061 0.9914443 0
    outer loop
      vertex -74.11177 -38.448887 -9.5
      vertex -74.5 -38.5 -7.5
      vertex -74.11177 -38.448887 -7.5
    endloop
  endfacet
  facet normal -0.13053061 0.9914443 0
    outer loop
      vertex -74.5 -38.5 -7.5
      vertex -74.11177 -38.448887 -9.5
      vertex -74.5 -38.5 -9.5
    endloop
  endfacet
  facet normal 0.13052104 -0.99144554 0
    outer loop
      vertex -74.88823 -35.55111 -9.5
      vertex -74.5 -35.5 -7.5
      vertex -74.88823 -35.55111 -7.5
    endloop
  endfacet
  facet normal 0.13052104 -0.99144554 0
    outer loop
      vertex -74.5 -35.5 -7.5
      vertex -74.88823 -35.55111 -9.5
      vertex -74.5 -35.5 -9.5
    endloop
  endfacet
  facet normal -0.92388076 0.38268045 0
    outer loop
      vertex -73.20096 -37.75 -9.5
      vertex -73.05111 -37.38823 -7.5
      vertex -73.05111 -37.38823 -9.5
    endloop
  endfacet
  facet normal -0.92388076 0.38268045 0
    outer loop
      vertex -73.05111 -37.38823 -7.5
      vertex -73.20096 -37.75 -9.5
      vertex -73.20096 -37.75 -7.5
    endloop
  endfacet
  facet normal 0.79335135 -0.60876405 0
    outer loop
      vertex -75.79904 -36.25 -7.5
      vertex -75.56066 -35.93934 -9.5
      vertex -75.56066 -35.93934 -7.5
    endloop
  endfacet
  facet normal 0.79335135 -0.60876405 0
    outer loop
      vertex -75.56066 -35.93934 -9.5
      vertex -75.79904 -36.25 -7.5
      vertex -75.79904 -36.25 -9.5
    endloop
  endfacet
  facet normal -0.3826888 -0.9238773 0
    outer loop
      vertex -74.11177 -35.55111 -9.5
      vertex -73.75 -35.700962 -7.5
      vertex -74.11177 -35.55111 -7.5
    endloop
  endfacet
  facet normal -0.3826888 -0.9238773 0
    outer loop
      vertex -73.75 -35.700962 -7.5
      vertex -74.11177 -35.55111 -9.5
      vertex -73.75 -35.700962 -9.5
    endloop
  endfacet
  facet normal 0.6087579 0.79335606 0
    outer loop
      vertex -75.25 -38.299038 -9.5
      vertex -75.56066 -38.06066 -7.5
      vertex -75.25 -38.299038 -7.5
    endloop
  endfacet
  facet normal 0.6087579 0.79335606 0
    outer loop
      vertex -75.56066 -38.06066 -7.5
      vertex -75.25 -38.299038 -9.5
      vertex -75.56066 -38.06066 -9.5
    endloop
  endfacet
  facet normal -0.79335135 -0.60876405 0
    outer loop
      vertex -73.20096 -36.25 -9.5
      vertex -73.43934 -35.93934 -7.5
      vertex -73.43934 -35.93934 -9.5
    endloop
  endfacet
  facet normal -0.79335135 -0.60876405 0
    outer loop
      vertex -73.43934 -35.93934 -7.5
      vertex -73.20096 -36.25 -9.5
      vertex -73.20096 -36.25 -7.5
    endloop
  endfacet
  facet normal 0.79335135 0.60876405 0
    outer loop
      vertex -75.56066 -38.06066 -7.5
      vertex -75.79904 -37.75 -9.5
      vertex -75.79904 -37.75 -7.5
    endloop
  endfacet
  facet normal 0.79335135 0.60876405 0
    outer loop
      vertex -75.79904 -37.75 -9.5
      vertex -75.56066 -38.06066 -7.5
      vertex -75.56066 -38.06066 -9.5
    endloop
  endfacet
  facet normal -1 0 0
    outer loop
      vertex 65 -20 -9.5
      vertex 65 46 -7.5
      vertex 65 46 -9.5
    endloop
  endfacet
  facet normal -1 0 0
    outer loop
      vertex 65 46 -7.5
      vertex 65 -20 -9.5
      vertex 65 -20 -7.5
    endloop
  endfacet
  facet normal 1 0 0
    outer loop
      vertex -32 -20 -7.5
      vertex -32 46 -9.5
      vertex -32 46 -7.5
    endloop
  endfacet
  facet normal 1 0 0
    outer loop
      vertex -32 46 -9.5
      vertex -32 -20 -7.5
      vertex -32 -20 -9.5
    endloop
  endfacet
  facet normal 0 -1 0
    outer loop
      vertex -32 46 -9.5
      vertex 65 46 -7.5
      vertex -32 46 -7.5
    endloop
  endfacet
  facet normal 0 -1 0
    outer loop
      vertex 65 46 -7.5
      vertex -32 46 -9.5
      vertex 65 46 -9.5
    endloop
  endfacet
  facet normal 0 1 0
    outer loop
      vertex 65 -20 -9.5
      vertex -32 -20 -7.5
      vertex 65 -20 -7.5
    endloop
  endfacet
  facet normal 0 1 0
    outer loop
      vertex -32 -20 -7.5
      vertex 65 -20 -9.5
      vertex -32 -20 -9.5
    endloop
  endfacet
  facet normal -1 0 0
    outer loop
      vertex 40 -45 -9.5
      vertex 40 -32 -7.5
      vertex 40 -32 -9.5
    endloop
  endfacet
  facet normal -1 0 0
    outer loop
      vertex 40 -32 -7.5
      vertex 40 -45 -9.5
      vertex 40 -45 -7.5
    endloop
  endfacet
  facet normal 1 0 0
    outer loop
      vertex -69 -49 9.5
      vertex -69 -50 9.5
      vertex -69 -49 -7.5
    endloop
  endfacet
  facet normal 1 0 0
    outer loop
      vertex -69 -49 -7.5
      vertex -69 -32 -9.5
      vertex -69 -32 -7.5
    endloop
  endfacet
  facet normal 1 0 0
    outer loop
      vertex -69 -49 -7.5
      vertex -69 -50 -9.5
      vertex -69 -32 -9.5
    endloop
  endfacet
  facet normal 1 0 0
    outer loop
      vertex -69 -50 -9.5
      vertex -69 -49 -7.5
      vertex -69 -50 9.5
    endloop
  endfacet
  facet normal 0 -1 0
    outer loop
      vertex -69 -32 -9.5
      vertex 40 -32 -7.5
      vertex -69 -32 -7.5
    endloop
  endfacet
  facet normal 0 -1 0
    outer loop
      vertex 40 -32 -7.5
      vertex -69 -32 -9.5
      vertex 40 -32 -9.5
    endloop
  endfacet
  facet normal -1 0 0
    outer loop
      vertex 45 -45 -9.5
      vertex 45 -49 -7.5
      vertex 45 -45 -7.5
    endloop
  endfacet
  facet normal -1 0 0
    outer loop
      vertex 45 -50 -9.5
      vertex 45 -49 -7.5
      vertex 45 -45 -9.5
    endloop
  endfacet
  facet normal -1 0 0
    outer loop
      vertex 45 -50 9.5
      vertex 45 -49 -7.5
      vertex 45 -50 -9.5
    endloop
  endfacet
  facet normal -1 0 0
    outer loop
      vertex 45 -49 -7.5
      vertex 45 -50 9.5
      vertex 45 -49 9.5
    endloop
  endfacet
  facet normal 0 -1 0
    outer loop
      vertex 40 -45 -9.5
      vertex 45 -45 -7.5
      vertex 40 -45 -7.5
    endloop
  endfacet
  facet normal 0 -1 0
    outer loop
      vertex 45 -45 -7.5
      vertex 40 -45 -9.5
      vertex 45 -45 -9.5
    endloop
  endfacet
  facet normal 1 0 0
    outer loop
      vertex 79.5 -50 -8
      vertex 79.5 50 -9.5
      vertex 79.5 50 -8
    endloop
  endfacet
  facet normal 1 0 0
    outer loop
      vertex 79.5 50 -9.5
      vertex 79.5 -50 -8
      vertex 79.5 -50 -9.5
    endloop
  endfacet
  facet normal 0 0 1
    outer loop
      vertex 76.94889 -36.61177 -8
      vertex 79.5 50 -8
      vertex 76.94889 42.61177 -8
    endloop
  endfacet
  facet normal 0 0 1
    outer loop
      vertex 79.5 50 -8
      vertex 76.94889 -36.61177 -8
      vertex 77 -37 -8
    endloop
  endfacet
  facet normal 0 0 1
    outer loop
      vertex 76.79904 42.25 -8
      vertex 76.94889 -36.61177 -8
      vertex 76.94889 42.61177 -8
    endloop
  endfacet
  facet normal 0 0 1
    outer loop
      vertex 76.79904 42.25 -8
      vertex 76.79904 -36.25 -8
      vertex 76.94889 -36.61177 -8
    endloop
  endfacet
  facet normal 0 0 1
    outer loop
      vertex 76.56066 41.93934 -8
      vertex 76.79904 -36.25 -8
      vertex 76.79904 42.25 -8
    endloop
  endfacet
  facet normal 0 0 1
    outer loop
      vertex 76.56066 41.93934 -8
      vertex 76.56066 -35.93934 -8
      vertex 76.79904 -36.25 -8
    endloop
  endfacet
  facet normal 0 0 1
    outer loop
      vertex 76.25 41.700962 -8
      vertex 76.56066 -35.93934 -8
      vertex 76.56066 41.93934 -8
    endloop
  endfacet
  facet normal 0 0 1
    outer loop
      vertex 76.25 41.700962 -8
      vertex 76.25 -35.700962 -8
      vertex 76.56066 -35.93934 -8
    endloop
  endfacet
  facet normal 0 0 1
    outer loop
      vertex 75.88823 41.55111 -8
      vertex 76.25 -35.700962 -8
      vertex 76.25 41.700962 -8
    endloop
  endfacet
  facet normal 0 0 1
    outer loop
      vertex 75.88823 41.55111 -8
      vertex 75.88823 -35.55111 -8
      vertex 76.25 -35.700962 -8
    endloop
  endfacet
  facet normal 0 0 1
    outer loop
      vertex 75.5 41.5 -8
      vertex 75.88823 -35.55111 -8
      vertex 75.88823 41.55111 -8
    endloop
  endfacet
  facet normal 0 0 1
    outer loop
      vertex 75.5 41.5 -8
      vertex 75.5 -35.5 -8
      vertex 75.88823 -35.55111 -8
    endloop
  endfacet
  facet normal 0 0 1
    outer loop
      vertex 75.11177 41.55111 -8
      vertex 75.5 -35.5 -8
      vertex 75.5 41.5 -8
    endloop
  endfacet
  facet normal 0 0 1
    outer loop
      vertex 75.11177 41.55111 -8
      vertex 75.11177 -35.55111 -8
      vertex 75.5 -35.5 -8
    endloop
  endfacet
  facet normal 0 0 1
    outer loop
      vertex 74.75 41.700962 -8
      vertex 75.11177 -35.55111 -8
      vertex 75.11177 41.55111 -8
    endloop
  endfacet
  facet normal 0 0 1
    outer loop
      vertex 74.75 41.700962 -8
      vertex 74.75 -35.700962 -8
      vertex 75.11177 -35.55111 -8
    endloop
  endfacet
  facet normal 0 0 1
    outer loop
      vertex 74.43934 41.93934 -8
      vertex 74.75 -35.700962 -8
      vertex 74.75 41.700962 -8
    endloop
  endfacet
  facet normal 0 0 1
    outer loop
      vertex 74.43934 41.93934 -8
      vertex 74.43934 -35.93934 -8
      vertex 74.75 -35.700962 -8
    endloop
  endfacet
  facet normal 0 0 1
    outer loop
      vertex 74.20096 42.25 -8
      vertex 74.43934 -35.93934 -8
      vertex 74.43934 41.93934 -8
    endloop
  endfacet
  facet normal 0 0 1
    outer loop
      vertex 74.20096 42.25 -8
      vertex 74.20096 -36.25 -8
      vertex 74.43934 -35.93934 -8
    endloop
  endfacet
  facet normal 0 0 1
    outer loop
      vertex 74.05111 42.61177 -8
      vertex 74.20096 -36.25 -8
      vertex 74.20096 42.25 -8
    endloop
  endfacet
  facet normal 0 0 1
    outer loop
      vertex 74.05111 42.61177 -8
      vertex 74.05111 -36.61177 -8
      vertex 74.20096 -36.25 -8
    endloop
  endfacet
  facet normal 0 0 1
    outer loop
      vertex 71.5 50 -8
      vertex 74.05111 42.61177 -8
      vertex 74 43 -8
    endloop
  endfacet
  facet normal 0 0 1
    outer loop
      vertex 74.05111 42.61177 -8
      vertex 71.5 50 -8
      vertex 74.05111 -36.61177 -8
    endloop
  endfacet
  facet normal 0 0 1
    outer loop
      vertex 76.94889 42.61177 -8
      vertex 79.5 50 -8
      vertex 77 43 -8
    endloop
  endfacet
  facet normal 0 0 1
    outer loop
      vertex 79.5 50 -8
      vertex 76.94889 43.38823 -8
      vertex 77 43 -8
    endloop
  endfacet
  facet normal 0 0 1
    outer loop
      vertex 79.5 50 -8
      vertex 76.79904 43.75 -8
      vertex 76.94889 43.38823 -8
    endloop
  endfacet
  facet normal 0 0 1
    outer loop
      vertex 79.5 50 -8
      vertex 76.56066 44.06066 -8
      vertex 76.79904 43.75 -8
    endloop
  endfacet
  facet normal 0 0 1
    outer loop
      vertex 79.5 50 -8
      vertex 76.25 44.299038 -8
      vertex 76.56066 44.06066 -8
    endloop
  endfacet
  facet normal 0 0 1
    outer loop
      vertex 79.5 50 -8
      vertex 75.88823 44.448887 -8
      vertex 76.25 44.299038 -8
    endloop
  endfacet
  facet normal 0 0 1
    outer loop
      vertex 79.5 50 -8
      vertex 75.5 44.5 -8
      vertex 75.88823 44.448887 -8
    endloop
  endfacet
  facet normal 0 0 1
    outer loop
      vertex 71.5 50 -8
      vertex 75.5 44.5 -8
      vertex 79.5 50 -8
    endloop
  endfacet
  facet normal 0 0 1
    outer loop
      vertex 75.5 44.5 -8
      vertex 71.5 50 -8
      vertex 75.11177 44.448887 -8
    endloop
  endfacet
  facet normal 0 0 1
    outer loop
      vertex 75.11177 44.448887 -8
      vertex 71.5 50 -8
      vertex 74.75 44.299038 -8
    endloop
  endfacet
  facet normal 0 0 1
    outer loop
      vertex 71.5 -50 -8
      vertex 74.05111 -36.61177 -8
      vertex 71.5 50 -8
    endloop
  endfacet
  facet normal 0 0 1
    outer loop
      vertex 74.05111 43.38823 -8
      vertex 71.5 50 -8
      vertex 74 43 -8
    endloop
  endfacet
  facet normal 0 0 1
    outer loop
      vertex 74.20096 43.75 -8
      vertex 71.5 50 -8
      vertex 74.05111 43.38823 -8
    endloop
  endfacet
  facet normal 0 0 1
    outer loop
      vertex 74.43934 44.06066 -8
      vertex 71.5 50 -8
      vertex 74.20096 43.75 -8
    endloop
  endfacet
  facet normal 0 0 1
    outer loop
      vertex 74.75 44.299038 -8
      vertex 71.5 50 -8
      vertex 74.43934 44.06066 -8
    endloop
  endfacet
  facet normal 0 0 1
    outer loop
      vertex 79.5 50 -8
      vertex 77 -37 -8
      vertex 79.5 -50 -8
    endloop
  endfacet
  facet normal 0 0 1
    outer loop
      vertex 76.94889 -37.38823 -8
      vertex 79.5 -50 -8
      vertex 77 -37 -8
    endloop
  endfacet
  facet normal 0 0 1
    outer loop
      vertex 76.79904 -37.75 -8
      vertex 79.5 -50 -8
      vertex 76.94889 -37.38823 -8
    endloop
  endfacet
  facet normal 0 0 1
    outer loop
      vertex 76.56066 -38.06066 -8
      vertex 79.5 -50 -8
      vertex 76.79904 -37.75 -8
    endloop
  endfacet
  facet normal 0 0 1
    outer loop
      vertex 76.25 -38.299038 -8
      vertex 79.5 -50 -8
      vertex 76.56066 -38.06066 -8
    endloop
  endfacet
  facet normal 0 0 1
    outer loop
      vertex 75.88823 -38.448887 -8
      vertex 79.5 -50 -8
      vertex 76.25 -38.299038 -8
    endloop
  endfacet
  facet normal 0 0 1
    outer loop
      vertex 75.5 -38.5 -8
      vertex 79.5 -50 -8
      vertex 75.88823 -38.448887 -8
    endloop
  endfacet
  facet normal 0 0 1
    outer loop
      vertex 71.5 -50 -8
      vertex 75.5 -38.5 -8
      vertex 75.11177 -38.448887 -8
    endloop
  endfacet
  facet normal 0 0 1
    outer loop
      vertex 71.5 -50 -8
      vertex 75.11177 -38.448887 -8
      vertex 74.75 -38.299038 -8
    endloop
  endfacet
  facet normal 0 0 1
    outer loop
      vertex 71.5 -50 -8
      vertex 74.75 -38.299038 -8
      vertex 74.43934 -38.06066 -8
    endloop
  endfacet
  facet normal 0 0 1
    outer loop
      vertex 71.5 -50 -8
      vertex 74.43934 -38.06066 -8
      vertex 74.20096 -37.75 -8
    endloop
  endfacet
  facet normal 0 0 1
    outer loop
      vertex 75.5 -38.5 -8
      vertex 71.5 -50 -8
      vertex 79.5 -50 -8
    endloop
  endfacet
  facet normal 0 0 1
    outer loop
      vertex 74.05111 -37.38823 -8
      vertex 71.5 -50 -8
      vertex 74.20096 -37.75 -8
    endloop
  endfacet
  facet normal 0 0 1
    outer loop
      vertex 74 -37 -8
      vertex 71.5 -50 -8
      vertex 74.05111 -37.38823 -8
    endloop
  endfacet
  facet normal 0 0 1
    outer loop
      vertex 74.05111 -36.61177 -8
      vertex 71.5 -50 -8
      vertex 74 -37 -8
    endloop
  endfacet
  facet normal 0.13053061 -0.9914443 0
    outer loop
      vertex 75.11177 44.448887 -9.5
      vertex 75.5 44.5 -8
      vertex 75.11177 44.448887 -8
    endloop
  endfacet
  facet normal 0.13053061 -0.9914443 0
    outer loop
      vertex 75.5 44.5 -8
      vertex 75.11177 44.448887 -9.5
      vertex 75.5 44.5 -9.5
    endloop
  endfacet
  facet normal -0.99144554 -0.13052104 0
    outer loop
      vertex 77 43 -9.5
      vertex 76.94889 43.38823 -8
      vertex 76.94889 43.38823 -9.5
    endloop
  endfacet
  facet normal -0.99144554 -0.13052104 0
    outer loop
      vertex 76.94889 43.38823 -8
      vertex 77 43 -9.5
      vertex 77 43 -8
    endloop
  endfacet
  facet normal 0.38268045 -0.92388076 0
    outer loop
      vertex 74.75 44.299038 -9.5
      vertex 75.11177 44.448887 -8
      vertex 74.75 44.299038 -8
    endloop
  endfacet
  facet normal 0.38268045 -0.92388076 0
    outer loop
      vertex 75.11177 44.448887 -8
      vertex 74.75 44.299038 -9.5
      vertex 75.11177 44.448887 -9.5
    endloop
  endfacet
  facet normal 0.99144554 0.13052104 0
    outer loop
      vertex 74.05111 42.61177 -8
      vertex 74 43 -9.5
      vertex 74 43 -8
    endloop
  endfacet
  facet normal 0.99144554 0.13052104 0
    outer loop
      vertex 74 43 -9.5
      vertex 74.05111 42.61177 -8
      vertex 74.05111 42.61177 -9.5
    endloop
  endfacet
  facet normal 0.92388076 -0.38268045 0
    outer loop
      vertex 74.05111 43.38823 -8
      vertex 74.20096 43.75 -9.5
      vertex 74.20096 43.75 -8
    endloop
  endfacet
  facet normal 0.92388076 -0.38268045 0
    outer loop
      vertex 74.20096 43.75 -9.5
      vertex 74.05111 43.38823 -8
      vertex 74.05111 43.38823 -9.5
    endloop
  endfacet
  facet normal -0.38268045 -0.92388076 0
    outer loop
      vertex 75.88823 44.448887 -9.5
      vertex 76.25 44.299038 -8
      vertex 75.88823 44.448887 -8
    endloop
  endfacet
  facet normal -0.38268045 -0.92388076 0
    outer loop
      vertex 76.25 44.299038 -8
      vertex 75.88823 44.448887 -9.5
      vertex 76.25 44.299038 -9.5
    endloop
  endfacet
  facet normal -0.13053061 -0.9914443 0
    outer loop
      vertex 75.5 44.5 -9.5
      vertex 75.88823 44.448887 -8
      vertex 75.5 44.5 -8
    endloop
  endfacet
  facet normal -0.13053061 -0.9914443 0
    outer loop
      vertex 75.88823 44.448887 -8
      vertex 75.5 44.5 -9.5
      vertex 75.88823 44.448887 -9.5
    endloop
  endfacet
  facet normal -0.79335135 0.60876405 0
    outer loop
      vertex 76.56066 41.93934 -9.5
      vertex 76.79904 42.25 -8
      vertex 76.79904 42.25 -9.5
    endloop
  endfacet
  facet normal -0.79335135 0.60876405 0
    outer loop
      vertex 76.79904 42.25 -8
      vertex 76.56066 41.93934 -9.5
      vertex 76.56066 41.93934 -8
    endloop
  endfacet
  facet normal -0.99144554 0.13052104 0
    outer loop
      vertex 76.94889 42.61177 -9.5
      vertex 77 43 -8
      vertex 77 43 -9.5
    endloop
  endfacet
  facet normal -0.99144554 0.13052104 0
    outer loop
      vertex 77 43 -8
      vertex 76.94889 42.61177 -9.5
      vertex 76.94889 42.61177 -8
    endloop
  endfacet
  facet normal -0.13052104 0.99144554 0
    outer loop
      vertex 75.88823 41.55111 -9.5
      vertex 75.5 41.5 -8
      vertex 75.88823 41.55111 -8
    endloop
  endfacet
  facet normal -0.13052104 0.99144554 0
    outer loop
      vertex 75.5 41.5 -8
      vertex 75.88823 41.55111 -9.5
      vertex 75.5 41.5 -9.5
    endloop
  endfacet
  facet normal 0.99144554 -0.13052104 0
    outer loop
      vertex 74 43 -8
      vertex 74.05111 43.38823 -9.5
      vertex 74.05111 43.38823 -8
    endloop
  endfacet
  facet normal 0.99144554 -0.13052104 0
    outer loop
      vertex 74.05111 43.38823 -9.5
      vertex 74 43 -8
      vertex 74 43 -9.5
    endloop
  endfacet
  facet normal -0.92388076 -0.38268045 0
    outer loop
      vertex 76.94889 43.38823 -9.5
      vertex 76.79904 43.75 -8
      vertex 76.79904 43.75 -9.5
    endloop
  endfacet
  facet normal -0.92388076 -0.38268045 0
    outer loop
      vertex 76.79904 43.75 -8
      vertex 76.94889 43.38823 -9.5
      vertex 76.94889 43.38823 -8
    endloop
  endfacet
  facet normal 0.6087579 0.79335606 0
    outer loop
      vertex 74.75 41.700962 -9.5
      vertex 74.43934 41.93934 -8
      vertex 74.75 41.700962 -8
    endloop
  endfacet
  facet normal 0.6087579 0.79335606 0
    outer loop
      vertex 74.43934 41.93934 -8
      vertex 74.75 41.700962 -9.5
      vertex 74.43934 41.93934 -9.5
    endloop
  endfacet
  facet normal 0.6087579 -0.79335606 0
    outer loop
      vertex 74.43934 44.06066 -9.5
      vertex 74.75 44.299038 -8
      vertex 74.43934 44.06066 -8
    endloop
  endfacet
  facet normal 0.6087579 -0.79335606 0
    outer loop
      vertex 74.75 44.299038 -8
      vertex 74.43934 44.06066 -9.5
      vertex 74.75 44.299038 -9.5
    endloop
  endfacet
  facet normal -0.92388076 0.38268045 0
    outer loop
      vertex 76.79904 42.25 -9.5
      vertex 76.94889 42.61177 -8
      vertex 76.94889 42.61177 -9.5
    endloop
  endfacet
  facet normal -0.92388076 0.38268045 0
    outer loop
      vertex 76.94889 42.61177 -8
      vertex 76.79904 42.25 -9.5
      vertex 76.79904 42.25 -8
    endloop
  endfacet
  facet normal 0.79335135 0.60876405 0
    outer loop
      vertex 74.43934 41.93934 -8
      vertex 74.20096 42.25 -9.5
      vertex 74.20096 42.25 -8
    endloop
  endfacet
  facet normal 0.79335135 0.60876405 0
    outer loop
      vertex 74.20096 42.25 -9.5
      vertex 74.43934 41.93934 -8
      vertex 74.43934 41.93934 -9.5
    endloop
  endfacet
  facet normal -0.6087579 0.79335606 0
    outer loop
      vertex 76.56066 41.93934 -9.5
      vertex 76.25 41.700962 -8
      vertex 76.56066 41.93934 -8
    endloop
  endfacet
  facet normal -0.6087579 0.79335606 0
    outer loop
      vertex 76.25 41.700962 -8
      vertex 76.56066 41.93934 -9.5
      vertex 76.25 41.700962 -9.5
    endloop
  endfacet
  facet normal -0.3826888 0.9238773 0
    outer loop
      vertex 76.25 41.700962 -9.5
      vertex 75.88823 41.55111 -8
      vertex 76.25 41.700962 -8
    endloop
  endfacet
  facet normal -0.3826888 0.9238773 0
    outer loop
      vertex 75.88823 41.55111 -8
      vertex 76.25 41.700962 -9.5
      vertex 75.88823 41.55111 -9.5
    endloop
  endfacet
  facet normal -0.6087579 -0.79335606 0
    outer loop
      vertex 76.25 44.299038 -9.5
      vertex 76.56066 44.06066 -8
      vertex 76.25 44.299038 -8
    endloop
  endfacet
  facet normal -0.6087579 -0.79335606 0
    outer loop
      vertex 76.56066 44.06066 -8
      vertex 76.25 44.299038 -9.5
      vertex 76.56066 44.06066 -9.5
    endloop
  endfacet
  facet normal 0.13052104 0.99144554 0
    outer loop
      vertex 75.5 41.5 -9.5
      vertex 75.11177 41.55111 -8
      vertex 75.5 41.5 -8
    endloop
  endfacet
  facet normal 0.13052104 0.99144554 0
    outer loop
      vertex 75.11177 41.55111 -8
      vertex 75.5 41.5 -9.5
      vertex 75.11177 41.55111 -9.5
    endloop
  endfacet
  facet normal 0.79335135 -0.60876405 0
    outer loop
      vertex 74.20096 43.75 -8
      vertex 74.43934 44.06066 -9.5
      vertex 74.43934 44.06066 -8
    endloop
  endfacet
  facet normal 0.79335135 -0.60876405 0
    outer loop
      vertex 74.43934 44.06066 -9.5
      vertex 74.20096 43.75 -8
      vertex 74.20096 43.75 -9.5
    endloop
  endfacet
  facet normal -0.79335135 -0.60876405 0
    outer loop
      vertex 76.79904 43.75 -9.5
      vertex 76.56066 44.06066 -8
      vertex 76.56066 44.06066 -9.5
    endloop
  endfacet
  facet normal -0.79335135 -0.60876405 0
    outer loop
      vertex 76.56066 44.06066 -8
      vertex 76.79904 43.75 -9.5
      vertex 76.79904 43.75 -8
    endloop
  endfacet
  facet normal 0.92388076 0.38268045 0
    outer loop
      vertex 74.20096 42.25 -8
      vertex 74.05111 42.61177 -9.5
      vertex 74.05111 42.61177 -8
    endloop
  endfacet
  facet normal 0.92388076 0.38268045 0
    outer loop
      vertex 74.05111 42.61177 -9.5
      vertex 74.20096 42.25 -8
      vertex 74.20096 42.25 -9.5
    endloop
  endfacet
  facet normal 0.3826888 0.9238773 0
    outer loop
      vertex 75.11177 41.55111 -9.5
      vertex 74.75 41.700962 -8
      vertex 75.11177 41.55111 -8
    endloop
  endfacet
  facet normal 0.3826888 0.9238773 0
    outer loop
      vertex 74.75 41.700962 -8
      vertex 75.11177 41.55111 -9.5
      vertex 74.75 41.700962 -9.5
    endloop
  endfacet
  facet normal -0.13053061 0.9914443 0
    outer loop
      vertex 75.88823 -38.448887 -9.5
      vertex 75.5 -38.5 -8
      vertex 75.88823 -38.448887 -8
    endloop
  endfacet
  facet normal -0.13053061 0.9914443 0
    outer loop
      vertex 75.5 -38.5 -8
      vertex 75.88823 -38.448887 -9.5
      vertex 75.5 -38.5 -9.5
    endloop
  endfacet
  facet normal -0.99144554 -0.13052104 0
    outer loop
      vertex 77 -37 -9.5
      vertex 76.94889 -36.61177 -8
      vertex 76.94889 -36.61177 -9.5
    endloop
  endfacet
  facet normal -0.99144554 -0.13052104 0
    outer loop
      vertex 76.94889 -36.61177 -8
      vertex 77 -37 -9.5
      vertex 77 -37 -8
    endloop
  endfacet
  facet normal 0.3826888 -0.9238773 0
    outer loop
      vertex 74.75 -35.700962 -9.5
      vertex 75.11177 -35.55111 -8
      vertex 74.75 -35.700962 -8
    endloop
  endfacet
  facet normal 0.3826888 -0.9238773 0
    outer loop
      vertex 75.11177 -35.55111 -8
      vertex 74.75 -35.700962 -9.5
      vertex 75.11177 -35.55111 -9.5
    endloop
  endfacet
  facet normal 0.38268045 0.92388076 0
    outer loop
      vertex 75.11177 -38.448887 -9.5
      vertex 74.75 -38.299038 -8
      vertex 75.11177 -38.448887 -8
    endloop
  endfacet
  facet normal 0.38268045 0.92388076 0
    outer loop
      vertex 74.75 -38.299038 -8
      vertex 75.11177 -38.448887 -9.5
      vertex 74.75 -38.299038 -9.5
    endloop
  endfacet
  facet normal 0.13052104 -0.99144554 0
    outer loop
      vertex 75.11177 -35.55111 -9.5
      vertex 75.5 -35.5 -8
      vertex 75.11177 -35.55111 -8
    endloop
  endfacet
  facet normal 0.13052104 -0.99144554 0
    outer loop
      vertex 75.5 -35.5 -8
      vertex 75.11177 -35.55111 -9.5
      vertex 75.5 -35.5 -9.5
    endloop
  endfacet
  facet normal 0.79335135 -0.60876405 0
    outer loop
      vertex 74.20096 -36.25 -8
      vertex 74.43934 -35.93934 -9.5
      vertex 74.43934 -35.93934 -8
    endloop
  endfacet
  facet normal 0.79335135 -0.60876405 0
    outer loop
      vertex 74.43934 -35.93934 -9.5
      vertex 74.20096 -36.25 -8
      vertex 74.20096 -36.25 -9.5
    endloop
  endfacet
  facet normal 0.6087579 0.79335606 0
    outer loop
      vertex 74.75 -38.299038 -9.5
      vertex 74.43934 -38.06066 -8
      vertex 74.75 -38.299038 -8
    endloop
  endfacet
  facet normal 0.6087579 0.79335606 0
    outer loop
      vertex 74.43934 -38.06066 -8
      vertex 74.75 -38.299038 -9.5
      vertex 74.43934 -38.06066 -9.5
    endloop
  endfacet
  facet normal 0.99144554 -0.13052104 0
    outer loop
      vertex 74 -37 -8
      vertex 74.05111 -36.61177 -9.5
      vertex 74.05111 -36.61177 -8
    endloop
  endfacet
  facet normal 0.99144554 -0.13052104 0
    outer loop
      vertex 74.05111 -36.61177 -9.5
      vertex 74 -37 -8
      vertex 74 -37 -9.5
    endloop
  endfacet
  facet normal -0.3826888 -0.9238773 0
    outer loop
      vertex 75.88823 -35.55111 -9.5
      vertex 76.25 -35.700962 -8
      vertex 75.88823 -35.55111 -8
    endloop
  endfacet
  facet normal -0.3826888 -0.9238773 0
    outer loop
      vertex 76.25 -35.700962 -8
      vertex 75.88823 -35.55111 -9.5
      vertex 76.25 -35.700962 -9.5
    endloop
  endfacet
  facet normal 0.6087579 -0.79335606 0
    outer loop
      vertex 74.43934 -35.93934 -9.5
      vertex 74.75 -35.700962 -8
      vertex 74.43934 -35.93934 -8
    endloop
  endfacet
  facet normal 0.6087579 -0.79335606 0
    outer loop
      vertex 74.75 -35.700962 -8
      vertex 74.43934 -35.93934 -9.5
      vertex 74.75 -35.700962 -9.5
    endloop
  endfacet
  facet normal -0.79335135 0.60876405 0
    outer loop
      vertex 76.56066 -38.06066 -9.5
      vertex 76.79904 -37.75 -8
      vertex 76.79904 -37.75 -9.5
    endloop
  endfacet
  facet normal -0.79335135 0.60876405 0
    outer loop
      vertex 76.79904 -37.75 -8
      vertex 76.56066 -38.06066 -9.5
      vertex 76.56066 -38.06066 -8
    endloop
  endfacet
  facet normal -0.92388076 -0.38268045 0
    outer loop
      vertex 76.94889 -36.61177 -9.5
      vertex 76.79904 -36.25 -8
      vertex 76.79904 -36.25 -9.5
    endloop
  endfacet
  facet normal -0.92388076 -0.38268045 0
    outer loop
      vertex 76.79904 -36.25 -8
      vertex 76.94889 -36.61177 -9.5
      vertex 76.94889 -36.61177 -8
    endloop
  endfacet
  facet normal -0.6087579 0.79335606 0
    outer loop
      vertex 76.56066 -38.06066 -9.5
      vertex 76.25 -38.299038 -8
      vertex 76.56066 -38.06066 -8
    endloop
  endfacet
  facet normal -0.6087579 0.79335606 0
    outer loop
      vertex 76.25 -38.299038 -8
      vertex 76.56066 -38.06066 -9.5
      vertex 76.25 -38.299038 -9.5
    endloop
  endfacet
  facet normal 0.92388076 -0.38268045 0
    outer loop
      vertex 74.05111 -36.61177 -8
      vertex 74.20096 -36.25 -9.5
      vertex 74.20096 -36.25 -8
    endloop
  endfacet
  facet normal 0.92388076 -0.38268045 0
    outer loop
      vertex 74.20096 -36.25 -9.5
      vertex 74.05111 -36.61177 -8
      vertex 74.05111 -36.61177 -9.5
    endloop
  endfacet
  facet normal -0.13052104 -0.99144554 0
    outer loop
      vertex 75.5 -35.5 -9.5
      vertex 75.88823 -35.55111 -8
      vertex 75.5 -35.5 -8
    endloop
  endfacet
  facet normal -0.13052104 -0.99144554 0
    outer loop
      vertex 75.88823 -35.55111 -8
      vertex 75.5 -35.5 -9.5
      vertex 75.88823 -35.55111 -9.5
    endloop
  endfacet
  facet normal -0.99144554 0.13052104 0
    outer loop
      vertex 76.94889 -37.38823 -9.5
      vertex 77 -37 -8
      vertex 77 -37 -9.5
    endloop
  endfacet
  facet normal -0.99144554 0.13052104 0
    outer loop
      vertex 77 -37 -8
      vertex 76.94889 -37.38823 -9.5
      vertex 76.94889 -37.38823 -8
    endloop
  endfacet
  facet normal -0.6087579 -0.79335606 0
    outer loop
      vertex 76.25 -35.700962 -9.5
      vertex 76.56066 -35.93934 -8
      vertex 76.25 -35.700962 -8
    endloop
  endfacet
  facet normal -0.6087579 -0.79335606 0
    outer loop
      vertex 76.56066 -35.93934 -8
      vertex 76.25 -35.700962 -9.5
      vertex 76.56066 -35.93934 -9.5
    endloop
  endfacet
  facet normal 0.13053061 0.9914443 0
    outer loop
      vertex 75.5 -38.5 -9.5
      vertex 75.11177 -38.448887 -8
      vertex 75.5 -38.5 -8
    endloop
  endfacet
  facet normal 0.13053061 0.9914443 0
    outer loop
      vertex 75.11177 -38.448887 -8
      vertex 75.5 -38.5 -9.5
      vertex 75.11177 -38.448887 -9.5
    endloop
  endfacet
  facet normal -0.79335135 -0.60876405 0
    outer loop
      vertex 76.79904 -36.25 -9.5
      vertex 76.56066 -35.93934 -8
      vertex 76.56066 -35.93934 -9.5
    endloop
  endfacet
  facet normal -0.79335135 -0.60876405 0
    outer loop
      vertex 76.56066 -35.93934 -8
      vertex 76.79904 -36.25 -9.5
      vertex 76.79904 -36.25 -8
    endloop
  endfacet
  facet normal -0.92388076 0.38268045 0
    outer loop
      vertex 76.79904 -37.75 -9.5
      vertex 76.94889 -37.38823 -8
      vertex 76.94889 -37.38823 -9.5
    endloop
  endfacet
  facet normal -0.92388076 0.38268045 0
    outer loop
      vertex 76.94889 -37.38823 -8
      vertex 76.79904 -37.75 -9.5
      vertex 76.79904 -37.75 -8
    endloop
  endfacet
  facet normal 0.99144554 0.13052104 0
    outer loop
      vertex 74.05111 -37.38823 -8
      vertex 74 -37 -9.5
      vertex 74 -37 -8
    endloop
  endfacet
  facet normal 0.99144554 0.13052104 0
    outer loop
      vertex 74 -37 -9.5
      vertex 74.05111 -37.38823 -8
      vertex 74.05111 -37.38823 -9.5
    endloop
  endfacet
  facet normal -0.38268045 0.92388076 0
    outer loop
      vertex 76.25 -38.299038 -9.5
      vertex 75.88823 -38.448887 -8
      vertex 76.25 -38.299038 -8
    endloop
  endfacet
  facet normal -0.38268045 0.92388076 0
    outer loop
      vertex 75.88823 -38.448887 -8
      vertex 76.25 -38.299038 -9.5
      vertex 75.88823 -38.448887 -9.5
    endloop
  endfacet
  facet normal 0.79335135 0.60876405 0
    outer loop
      vertex 74.43934 -38.06066 -8
      vertex 74.20096 -37.75 -9.5
      vertex 74.20096 -37.75 -8
    endloop
  endfacet
  facet normal 0.79335135 0.60876405 0
    outer loop
      vertex 74.20096 -37.75 -9.5
      vertex 74.43934 -38.06066 -8
      vertex 74.43934 -38.06066 -9.5
    endloop
  endfacet
  facet normal 0.92388076 0.38268045 0
    outer loop
      vertex 74.20096 -37.75 -8
      vertex 74.05111 -37.38823 -9.5
      vertex 74.05111 -37.38823 -8
    endloop
  endfacet
  facet normal 0.92388076 0.38268045 0
    outer loop
      vertex 74.05111 -37.38823 -9.5
      vertex 74.20096 -37.75 -8
      vertex 74.20096 -37.75 -9.5
    endloop
  endfacet
endsolid OpenSCAD_Model
